<svg xmlns="http://www.w3.org/2000/svg" width="344" height="189" viewBox="0 0 344 189" fill="none">
    <path
        d="M326.581 71.688C308.16 66.7113 300.113 58.4654 300.69 45.0847C301.202 33.4453 308.221 23.3983 316.352 13.6201C317.983 11.6581 319.636 9.71283 321.314 7.71971C303.572 13.3135 286.793 19.5276 269.031 24.0074C237.841 31.8929 206.012 38.23 172.897 27.3332C140.775 67.2948 90.6037 93.5742 32.5887 114.776C56.0614 120.809 66.3911 130.03 63.3806 143.869C61.5484 152.281 56.6955 160.395 52.4031 168.442C50.1842 172.584 46.2067 176.249 42.0802 181.266C46.0987 179.781 48.4008 178.965 50.6812 178.083C72.4513 169.649 95.1208 162.56 119.583 158.418C143.413 154.39 167.316 152.22 191.291 160.59C223.647 120.618 273.495 94.2341 331.434 73.2569C329.447 72.6121 328.062 72.0786 326.604 71.6886L326.581 71.688Z"
        fill="url(#paint0_linear_1109_5267)" />
    <path
        d="M50.2413 65.769C49.0783 62.8999 49.5654 60.7552 51.8204 58.8578C53.783 57.2085 56.1836 56.5484 58.6595 56.0567C59.1562 55.958 59.6527 55.8644 60.1596 55.7667C57.337 54.5281 54.5163 53.4925 51.8742 52.0881C47.2315 49.6249 42.7741 46.8603 41.003 41.4162C31.0031 43.5537 21.307 41.5873 11.6006 37.9648C13.133 41.5756 12.7314 44.1284 10.1399 45.8106C8.56437 46.8328 6.71326 47.4607 4.9334 48.1437C4.0161 48.4942 2.98823 48.5705 1.72277 48.8279C2.39781 49.0764 2.77886 49.2238 3.16825 49.3592C6.889 50.6483 10.4859 52.2392 13.7923 54.471C17.0121 56.6463 19.9352 59.1025 21.1387 63.1146C31.1654 61.0026 40.8439 62.9161 50.5055 66.5628C50.3977 66.2374 50.3364 65.9983 50.2437 65.7718L50.2413 65.769Z"
        fill="url(#paint1_linear_1109_5267)" />
    <path
        d="M315.677 113.751C317.436 113.515 318.524 114.059 319.183 115.507C319.755 116.767 319.715 118.128 319.57 119.507C319.541 119.783 319.509 120.059 319.478 120.341C320.624 119.008 321.659 117.65 322.865 116.436C324.983 114.301 327.234 112.304 330.498 112.089C331 106.501 333.69 101.62 337.284 96.9537C335.059 97.2864 333.734 96.734 333.249 95.136C332.955 94.1645 332.921 93.0993 332.845 92.0646C332.807 91.5315 332.937 90.9762 333.008 90.2708C332.76 90.5958 332.616 90.7783 332.477 90.9668C331.153 92.7688 329.686 94.4649 327.917 95.9218C326.194 97.3403 324.367 98.5641 321.979 98.669C321.458 104.267 318.8 109.146 315.201 113.785C315.396 113.772 315.537 113.771 315.676 113.752L315.677 113.751Z"
        fill="url(#paint2_linear_1109_5267)" />
    <path
        d="M82.6586 59.786V129.434C82.6586 136.777 88.6118 142.73 95.9555 142.73H273.397C280.741 142.73 286.694 136.777 286.694 129.434V59.786C286.694 52.4423 280.741 46.4891 273.397 46.4891L95.9555 46.4891C88.6118 46.4891 82.6586 52.4423 82.6586 59.786Z"
        stroke="url(#paint3_linear_1109_5267)" stroke-width="0.750659" stroke-miterlimit="10" />
    <path
        d="M272.138 51.4023H97.6874C92.44 51.4023 88.1861 55.6562 88.1861 60.9037V128.236C88.1861 133.483 92.44 137.737 97.6874 137.737H272.138C277.385 137.737 281.639 133.483 281.639 128.236V60.9037C281.639 55.6562 277.385 51.4023 272.138 51.4023Z"
        fill="url(#paint4_linear_1109_5267)" />
    <rect x="134" y="75" width="105" height="12" rx="3.88112" fill="#F4D6DF" />
    <rect x="101.084" y="69" width="24.7686" height="23.816" rx="3.88112" fill="#F4D6DF" />
    <path
        d="M109.382 84.0612C108.634 83.1318 108.227 81.9742 108.229 80.7813C108.229 77.8876 110.574 75.5417 113.468 75.5417C116.362 75.5417 118.708 77.8876 118.708 80.7813C118.708 82.0226 118.276 83.1633 117.554 84.0612L116.459 83.1419C116.902 82.5801 117.178 81.9049 117.256 81.1934C117.333 80.482 117.209 79.7632 116.896 79.1192C116.584 78.4752 116.097 77.9322 115.491 77.5522C114.884 77.1722 114.183 76.9707 113.467 76.9707C112.752 76.9707 112.051 77.1722 111.444 77.5522C110.838 77.9322 110.351 78.4752 110.038 79.1192C109.726 79.7632 109.602 80.482 109.679 81.1934C109.757 81.9049 110.033 82.5801 110.476 83.1419L109.382 84.0612Z"
        fill="#26008C" />
    <path
        d="M113.468 78.3997C112.963 78.3997 112.478 78.6004 112.121 78.9577C111.764 79.315 111.563 79.7996 111.563 80.3049V81.7339C111.563 82.1563 111.704 82.5668 111.962 82.9008C112.221 83.2348 112.583 83.4734 112.992 83.5792V84.5151L111.699 85.6002C111.661 85.6316 111.635 85.6738 111.622 85.7211C111.609 85.7683 111.611 85.8183 111.628 85.8642C111.645 85.9102 111.675 85.9498 111.716 85.9778C111.756 86.0058 111.803 86.0208 111.852 86.0208H115.085C115.133 86.0208 115.181 86.0058 115.221 85.9778C115.261 85.9498 115.292 85.9102 115.309 85.8642C115.325 85.8183 115.328 85.7683 115.315 85.7211C115.302 85.6738 115.275 85.6316 115.238 85.6002L113.945 84.5151V83.5792C114.766 83.3677 115.374 82.6218 115.374 81.7339V80.3049C115.374 79.7996 115.173 79.315 114.816 78.9577C114.458 78.6004 113.974 78.3997 113.468 78.3997Z"
        fill="#26008C" />
    <path
        d="M276.995 46.772C278.353 48.3028 293.203 59.9661 292.651 57.4559C292.287 55.8115 289.07 53.7488 285.816 51.7508C281.759 49.2604 277.627 46.9607 273.309 45.0766C268.83 43.2466 264.285 40.9061 259.398 41.0932C249.752 41.558 253.574 51.3526 257.703 56.5779C261.448 61.4937 266.009 65.5048 270.774 69.0773"
        stroke="#26008D" stroke-width="0.614716" stroke-linecap="round" stroke-linejoin="round" />
    <path
        d="M273.645 33.4876C270.863 31.0796 262.354 24.6364 266.827 33.8143C269.748 38.9442 272.922 42.808 276.994 46.7782"
        stroke="#26008D" stroke-width="0.614716" stroke-linecap="round" stroke-linejoin="round" />
    <path
        d="M122.151 154.049C132.54 133.24 118.025 137.613 122.151 154.049ZM122.151 154.049C120.321 158.529 114.886 161.771 111.916 156.062C108.475 149.539 108.965 141.037 112.326 134.574C112.767 133.8 114.359 131.689 115.039 133.223"
        stroke="#26008C" stroke-width="0.614716" stroke-linecap="round" stroke-linejoin="round" />
    <path
        d="M106.741 123.874C104.25 130.141 100.719 139.169 104.95 145.875C105.987 147.522 107.625 147.892 109.576 146.578"
        stroke="#26008C" stroke-width="0.614716" stroke-linecap="round" stroke-linejoin="round" />
    <path d="M139.806 146.358C137.774 153.665 127.199 166.021 122.193 154.149" stroke="#26008C"
        stroke-width="0.614716" stroke-linecap="round" stroke-linejoin="round" />
    <path d="M115.042 133.23C115.965 136.712 112.986 143.826 109.648 146.528" stroke="#26008C"
        stroke-width="0.614716" stroke-linecap="round" stroke-linejoin="round" />
    <circle cx="270.641" cy="133.661" r="21.4014" fill="white" />
    <circle cx="270.641" cy="133.661" r="26.497" stroke="url(#paint5_linear_1109_5267)"
        stroke-width="0.750659" stroke-miterlimit="10" />
    <path
        d="M265.597 125.107L279.345 133.043C279.453 133.106 279.543 133.196 279.605 133.305C279.668 133.413 279.701 133.536 279.701 133.661C279.701 133.786 279.668 133.909 279.605 134.018C279.543 134.126 279.453 134.216 279.345 134.279L265.597 142.215C265.488 142.278 265.365 142.311 265.24 142.311C265.115 142.311 264.992 142.278 264.883 142.216C264.775 142.153 264.685 142.063 264.622 141.954C264.56 141.846 264.527 141.723 264.527 141.598V125.724C264.527 125.599 264.56 125.476 264.622 125.368C264.685 125.259 264.775 125.169 264.883 125.107C264.992 125.044 265.115 125.011 265.24 125.011C265.365 125.011 265.488 125.044 265.597 125.107Z"
        fill="#26008C" />
    <path d="M136.791 102.824H216.17" stroke="white" stroke-width="2.84997" stroke-miterlimit="10"
        stroke-linecap="round" />
    <path d="M136.791 110.833H220.01" stroke="white" stroke-width="2.84997" stroke-miterlimit="10"
        stroke-linecap="round" />
    <path d="M136.791 118.841H209.123" stroke="white" stroke-width="2.84997" stroke-miterlimit="10"
        stroke-linecap="round" />
    <defs>
        <linearGradient id="paint0_linear_1109_5267" x1="90.4042" y1="36.0686" x2="158.307"
            y2="256.366" gradientUnits="userSpaceOnUse">
            <stop offset="0.046875" stop-color="#F4D6DF" />
            <stop offset="0.869792" stop-color="#9691FF" />
        </linearGradient>
        <linearGradient id="paint1_linear_1109_5267" x1="49.1478" y1="33.378" x2="23.0069"
            y2="77.3547" gradientUnits="userSpaceOnUse">
            <stop stop-color="#2D098F" />
            <stop offset="0.21" stop-color="#482CAD" />
            <stop offset="0.63" stop-color="#7A6EE5" />
            <stop offset="0.83" stop-color="#8E88FC" />
        </linearGradient>
        <linearGradient id="paint2_linear_1109_5267" x1="333.523" y1="117.477" x2="314.715"
            y2="97.019" gradientUnits="userSpaceOnUse">
            <stop stop-color="#2D098F" />
            <stop offset="0.21" stop-color="#482CAD" />
            <stop offset="0.63" stop-color="#7A6EE5" />
            <stop offset="0.83" stop-color="#8E88FC" />
        </linearGradient>
        <linearGradient id="paint3_linear_1109_5267" x1="82.1979" y1="94.6097" x2="357.502"
            y2="94.3948" gradientUnits="userSpaceOnUse">
            <stop stop-color="white" />
            <stop offset="0.34" stop-color="#DBD9E6" stop-opacity="0.85" />
            <stop offset="0.45" stop-color="#D1CEE9" stop-opacity="0.73" />
            <stop offset="0.56" stop-color="#C4C1EE" stop-opacity="0.58" />
            <stop offset="0.67" stop-color="#B3B0F3" stop-opacity="0.4" />
            <stop offset="0.77" stop-color="#A19CF9" stop-opacity="0.18" />
            <stop offset="0.85" stop-color="#918CFF" stop-opacity="0" />
        </linearGradient>
        <linearGradient id="paint4_linear_1109_5267" x1="174.872" y1="37.6412" x2="194.949"
            y2="151.493" gradientUnits="userSpaceOnUse">
            <stop stop-color="#2D098F" />
            <stop offset="0.21" stop-color="#482CAD" />
            <stop offset="0.63" stop-color="#7A6EE5" />
            <stop offset="0.83" stop-color="#8E88FC" />
        </linearGradient>
        <linearGradient id="paint5_linear_1109_5267" x1="244.144" y1="133.661" x2="309.368"
            y2="133.745" gradientUnits="userSpaceOnUse">
            <stop stop-color="white" />
            <stop offset="0.34" stop-color="#DBD9E6" stop-opacity="0.85" />
            <stop offset="0.45" stop-color="#D1CEE9" stop-opacity="0.73" />
            <stop offset="0.56" stop-color="#C4C1EE" stop-opacity="0.58" />
            <stop offset="0.67" stop-color="#B3B0F3" stop-opacity="0.4" />
            <stop offset="0.77" stop-color="#A19CF9" stop-opacity="0.18" />
            <stop offset="0.85" stop-color="#918CFF" stop-opacity="0" />
        </linearGradient>
    </defs>
</svg>